<?xml version="1.0" encoding="iso-8859-1"?>
<!-- Generator: Adobe Illustrator 19.0.0, SVG Export Plug-In . SVG Version: 6.00 Build 0)  -->
<svg version="1.1" id="Layer_1" xmlns="http://www.w3.org/2000/svg" xmlns:xlink="http://www.w3.org/1999/xlink" x="0px" y="0px"
	 viewBox="0 0 512 512" style="enable-background:new 0 0 512 512;" xml:space="preserve">
<circle style="fill:#FCD063;" cx="256" cy="256" r="256"/>
<path style="fill:#F7B84E;" d="M420.256,59.744C457.504,104.208,480,161.456,480,224c0,141.376-114.624,256-256,256
	c-62.544,0-119.792-22.496-164.256-59.744C106.704,476.32,177.152,512,256,512c141.376,0,256-114.624,256-256
	C512,177.152,476.32,106.704,420.256,59.744z"/>
<path style="fill:#35495C;" d="M0,256c0,5.392,0.48,10.672,0.8,16h510.384c0.352-5.328,0.816-10.608,0.816-16
	c0-40.224-9.536-78.128-26.064-112H26.064C9.536,177.872,0,215.776,0,256z"/>
<path style="fill:#123247;" d="M480,224c0,16.416-1.68,32.432-4.656,48h35.84c0.352-5.328,0.816-10.608,0.816-16
	c0-40.208-9.376-78.16-25.904-112h-19.12C475.28,169.184,480,196.016,480,224z"/>
<g>
	<circle style="fill:#FCD063;" cx="160" cy="208" r="32"/>
	<circle style="fill:#FCD063;" cx="352" cy="208" r="32"/>
</g>
<g>
	<path style="fill:#F7B84E;" d="M160,192c14.896,0,27.296,10.224,30.864,24c0.672-2.576,1.136-5.216,1.136-8
		c0-17.664-14.336-32-32-32s-32,14.336-32,32c0,2.784,0.464,5.424,1.136,8C132.704,202.224,145.104,192,160,192z"/>
	<path style="fill:#F7B84E;" d="M352,192c14.896,0,27.296,10.224,30.88,24c0.656-2.576,1.12-5.216,1.12-8c0-17.664-14.336-32-32-32
		s-32,14.336-32,32c0,2.784,0.464,5.424,1.12,8C324.704,202.224,337.104,192,352,192z"/>
</g>
<path style="fill:#C98E3F;" d="M186.224,320c4.608,0,9.264,1.12,13.504,3.472c29.984,16.592,82.592,16.592,112.56,0
	c12.368-6.864,28.48-3.216,35.968,8.144c7.472,11.36,3.488,26.128-8.896,32.992c-46.736,25.872-119.968,25.872-166.704,0
	c-12.368-6.864-16.352-21.632-8.88-32.992C168.688,324.144,177.344,320,186.224,320z"/>
<path style="fill:#AB7934;" d="M163.776,347.6c4.912-7.472,13.568-11.6,22.448-11.6c4.608,0,9.264,1.104,13.504,3.456
	c29.984,16.608,82.592,16.608,112.56,0c12.368-6.864,28.48-3.2,35.968,8.144c0.912,1.376,1.632,2.816,2.192,4.288
	c2.464-6.512,2-13.904-2.192-20.272c-7.488-11.36-23.6-15.008-35.968-8.144c-29.968,16.592-82.576,16.592-112.56,0
	c-4.24-2.352-8.896-3.472-13.504-3.472c-8.88,0-17.52,4.144-22.448,11.616c-4.192,6.352-4.672,13.744-2.208,20.272
	C162.144,350.4,162.864,348.976,163.776,347.6z"/>
<g>
</g>
<g>
</g>
<g>
</g>
<g>
</g>
<g>
</g>
<g>
</g>
<g>
</g>
<g>
</g>
<g>
</g>
<g>
</g>
<g>
</g>
<g>
</g>
<g>
</g>
<g>
</g>
<g>
</g>
</svg>
